PathFileType	4	(X/Y/Z)	8_coords_data.trc
DataRate	CameraRate	NumFrames	NumMarkers	Units	OrigDataRate	OrigDataStartFrame	OrigNumFrames
30.0	30.0	6	21	m	30.0	1	55
Frame#	Time	THUMB_TIP	THUMB_IP	THUMB_MCP	THUMB_CMC	INDEX_TIP	INDEX_DIP	INDEX_PIP	INDEX_MCP	MIDDLE_TIP	MIDDLE_DIP	MIDDLE_PIP	MIDDLE_MCP	RING_TIP	RING_DIP	RING_PIP	RING_MCP	PINKY_TIP	PINKY_DIP	PINKY_PIP	PINKY_MCP	WRIST
X1	Y1	Z1	X2	Y2	Z2	X3	Y3	Z3	X4	Y4	Z4	X5	Y5	Z5	X6	Y6	Z6	X7	Y7	Z7	X8	Y8	Z8	X9	Y9	Z9	X10	Y10	Z10	X11	Y11	Z11	X12	Y12	Z12	X13	Y13	Z13	X14	Y14	Z14	X15	Y15	Z15	X16	Y16	Z16	X17	Y17	Z17	X18	Y18	Z18	X19	Y19	Z19	X20	Y20	Z20	X21	Y21	Z21
0	0.0	0.00363031005859375	-0.027100099563598632	0.9863499755859375	-0.002268980026245117	-0.036777400970458986	1.00725	-0.010727700233459472	-0.029850700378417968	1.03493994140625	-0.020847499847412108	-0.007907740116119385	1.0494000244140624	0.006574019908905029	-0.021909500122070314	0.9479819946289062	-0.012159199714660644	-0.024998699188232422	0.9536199951171875	-0.03135169982910156	-0.026903099060058593	0.9628309936523437	-0.03992399978637695	-0.02442580032348633	1.000489990234375	0.0062248997688293456	-0.001251559972763061	0.9313070068359375	-0.01465410041809082	-0.002767699956893921	0.9418720092773437	-0.0357598991394043	-0.004209259986877442	0.9576820068359375	-0.04624789810180664	-0.00271835994720459	0.9981530151367187	0.007001689910888672	0.017868999481201173	0.9400999755859375	-0.012482000350952148	0.01933889961242676	0.9501420288085938	-0.03327970123291016	0.01892519950866699	0.9640029907226563	-0.04068019866943359	0.01571179962158203	0.9982420043945313	4.0340501815080005e-05	0.039063899993896485	0.9604299926757812	-0.01553030014038086	0.039917198181152344	0.9707760009765625	-0.02887150001525879	0.037685298919677736	0.9804860229492187	-0.03571739959716797	0.03135759925842285	1.0086500244140626	-0.045790000915527346	0.017900699615478514	1.0698399658203126
1	0.03333333333333333	0.0036043701171875	-0.02725580024719238	0.986385009765625	-0.003126410007476806	-0.03602040100097656	1.0096400146484374	-0.011918299674987793	-0.030919599533081054	1.034	-0.02089699935913086	-0.006630199909210205	1.05093994140625	0.007439949989318848	-0.021997400283813476	0.947218994140625	-0.012125300407409669	-0.024687299728393553	0.9532490234375	-0.031105300903320313	-0.026812700271606444	0.9643170166015625	-0.040253898620605466	-0.024318300247192382	1.0011699829101564	0.006126599788665771	-0.001831120014190673	0.9322860107421875	-0.013725799560546875	-0.002810420036315918	0.9430809936523438	-0.035354598999023434	-0.003676440000534057	0.9587459716796874	-0.04494369888305664	-0.003245199918746948	0.9977429809570313	0.006457200050354004	0.01802050018310547	0.9404609985351563	-0.012734600067138672	0.018951200485229493	0.9507940063476562	-0.033302898406982424	0.01876919937133789	0.9656119995117187	-0.04199530029296875	0.015624699592590332	1.0000999755859374	0.000766770005226135	0.039549800872802736	0.960510986328125	-0.015459799766540527	0.039255901336669924	0.9700659790039062	-0.02859320068359375	0.03749679946899414	0.9815120239257813	-0.0357859992980957	0.032558101654052735	1.005969970703125	-0.04489929962158203	0.016943099975585938	1.070219970703125
2	0.06666666666666667	0.003891230106353759	-0.027339599609375	0.9863729858398438	-0.003081729888916015	-0.03606010055541992	1.0099400024414062	-0.011918800354003906	-0.031008499145507813	1.0343299560546875	-0.020841999053955076	-0.006692639827728272	1.0511199951171875	0.007427209854125976	-0.022186500549316406	0.9476010131835938	-0.012142999649047852	-0.02490340042114258	0.9535369873046875	-0.031087099075317384	-0.02699640083312988	0.9645999755859375	-0.04015900039672852	-0.024434900283813475	1.0014299926757813	0.00601216983795166	-0.002040199995040893	0.93227099609375	-0.013743900299072265	-0.0029975299835205077	0.9432990112304688	-0.0353557014465332	-0.0038518400192260743	0.9589600219726563	-0.04486069869995117	-0.003356640100479126	0.997927001953125	0.006480700016021728	0.01791710090637207	0.9406400146484375	-0.012706700325012208	0.01883539962768555	0.9509619750976562	-0.03326729965209961	0.01862809944152832	0.9657940063476562	-0.04194860076904297	0.015504500389099122	1.0003200073242187	0.0007275679707527161	0.03950849914550781	0.9607260131835937	-0.015508600234985351	0.03917399978637695	0.9702579956054688	-0.028636199951171875	0.03741019821166992	0.9816959838867187	-0.035840099334716796	0.03247909927368164	1.0061400146484376	-0.044810699462890624	0.016870100021362303	1.0704200439453124
3	0.1	0.003753890037536621	-0.02713570022583008	0.9871630249023438	-0.0030289599895477293	-0.036213001251220706	1.0101199951171875	-0.011884300231933594	-0.031089000701904297	1.0345799560546876	-0.020820899963378905	-0.006774660110473633	1.0514200439453125	0.007363749980926514	-0.022375499725341797	0.9479240112304688	-0.012185500144958497	-0.025065299987792968	0.9537780151367188	-0.03120479965209961	-0.02718479919433594	0.9648259887695313	-0.04017020034790039	-0.02456119918823242	1.0017000122070312	0.005995649814605713	-0.002229640007019043	0.93272998046875	-0.013759300231933594	-0.003186579942703247	0.9435330200195312	-0.0353843994140625	-0.004024740219116211	0.959197998046875	-0.04480400085449219	-0.003482280015945434	0.9980579833984375	0.006515679836273193	0.01769230079650879	0.9410360107421875	-0.012701499938964843	0.018643600463867187	0.9512730102539062	-0.033276599884033205	0.018410299301147463	0.966041015625	-0.041965801239013674	0.01539210033416748	1.000510009765625	0.000491813987493515	0.03942679977416992	0.9608720092773437	-0.015739800453186036	0.039090198516845705	0.9704340209960938	-0.028836299896240234	0.0373385009765625	0.9818889770507813	-0.03594020080566406	0.03241009902954101	1.0063099975585938	-0.04472309875488281	0.016779300689697265	1.07056005859375
4	0.13333333333333333	0.003706429958343506	-0.027228500366210936	0.987030029296875	-0.0030527100563049313	-0.0361797981262207	1.01025	-0.01194670009613037	-0.031124799728393555	1.034739990234375	-0.020891599655151367	-0.006754769802093506	1.05156005859375	0.007189449787139893	-0.022497900009155275	0.9479229736328125	-0.012408300399780274	-0.02517919921875	0.953927001953125	-0.031365999221801756	-0.02727739906311035	0.964947021484375	-0.040238300323486326	-0.024600000381469728	1.0018599853515624	0.00593011999130249	-0.002314569950103759	0.9327949829101563	-0.013785400390625	-0.0032563800811767577	0.9437030029296875	-0.03544440078735352	-0.004092780113220215	0.9593380126953125	-0.044873199462890624	-0.0035506300926208493	0.9981439819335938	0.006478569984436035	0.017667600631713867	0.9412550048828126	-0.012724800109863281	0.018569299697875977	0.9514010009765625	-0.03330049896240234	0.01830380058288574	0.9661749877929687	-0.04205640029907227	0.015350199699401856	1.0005700073242187	0.000374291002750396	0.03942129898071289	0.9610130004882812	-0.01587030029296875	0.03907690048217773	0.9705919799804688	-0.02899810028076172	0.0373218994140625	0.9820260009765625	-0.036044300079345705	0.032388099670410155	1.0064400024414062	-0.044850799560546876	0.016843700408935548	1.070739990234375
5	0.16666666666666666	0.003783730030059814	-0.02712190055847168	0.9867340087890625	-0.003188610076904297	-0.03609560012817383	1.0104400024414062	-0.011971699714660644	-0.031043100357055663	1.0348900146484374	-0.02094459915161133	-0.00670727014541626	1.051699951171875	0.006669479846954346	-0.022461599349975585	0.947968994140625	-0.012886599540710449	-0.02522640037536621	0.9539149780273437	-0.031759899139404295	-0.027337499618530273	0.9650440063476563	-0.0403224983215332	-0.02454120063781738	1.001989990234375	0.005685649871826172	-0.002262909889221191	0.9327769775390625	-0.01407859992980957	-0.0032105500698089598	0.9437930297851562	-0.03570769882202148	-0.004051899909973144	0.9594520263671875	-0.04499829864501953	-0.003494119882583618	0.9983800048828125	0.006219170093536377	0.017744499206542967	0.9412360229492187	-0.013020600318908691	0.018636499404907227	0.9514580078125	-0.033548000335693356	0.01838319969177246	0.966302978515625	-0.04220800018310547	0.015394300460815429	1.000780029296875	0.00017921799421310403	0.03947169876098633	0.9610659790039062	-0.016049999237060547	0.03913320159912109	0.9706409912109375	-0.029143600463867186	0.037373199462890624	0.9820850219726562	-0.0361879997253418	0.03239289855957031	1.0066199951171875	-0.044848400115966795	0.01681180000305176	1.0708800048828124
